<svg xmlns="http://www.w3.org/2000/svg" viewBox="0 0 512 512">
  <defs>
    <linearGradient id="g1" x1="0%" y1="0%" x2="100%" y2="100%">
      <stop offset="0%" stop-color="#4ade80"/>
      <stop offset="100%" stop-color="#16a34a"/>
    </linearGradient>
    <linearGradient id="g2" x1="0%" y1="0%" x2="100%" y2="100%">
      <stop offset="0%" stop-color="#22c55e"/>
      <stop offset="100%" stop-color="#15803d"/>
    </linearGradient>
  </defs>
  <circle cx="256" cy="256" r="240" fill="url(#g1)"/>
  <circle cx="256" cy="256" r="210" fill="none" stroke="rgba(255,255,255,0.15)" stroke-width="2"/>
  <rect x="220" y="80" width="36" height="320" rx="6" fill="white" opacity="0.85"/>
  <line x1="224" y1="120" x2="252" y2="160" stroke="url(#g2)" stroke-width="5" stroke-linecap="round"/>
  <line x1="252" y1="120" x2="224" y2="160" stroke="url(#g2)" stroke-width="5" stroke-linecap="round"/>
  <line x1="224" y1="170" x2="252" y2="210" stroke="url(#g2)" stroke-width="5" stroke-linecap="round"/>
  <line x1="252" y1="170" x2="224" y2="210" stroke="url(#g2)" stroke-width="5" stroke-linecap="round"/>
  <line x1="224" y1="220" x2="252" y2="260" stroke="url(#g2)" stroke-width="5" stroke-linecap="round"/>
  <line x1="252" y1="220" x2="224" y2="260" stroke="url(#g2)" stroke-width="5" stroke-linecap="round"/>
  <rect x="130" y="85" width="220" height="28" rx="6" fill="white" opacity="0.9"/>
  <line x1="250" y1="113" x2="290" y2="85" stroke="url(#g2)" stroke-width="5" stroke-linecap="round"/>
  <line x1="290" y1="113" x2="330" y2="85" stroke="url(#g2)" stroke-width="5" stroke-linecap="round"/>
  <line x1="175" y1="113" x2="210" y2="85" stroke="url(#g2)" stroke-width="5" stroke-linecap="round"/>
  <line x1="250" y1="85" x2="310" y2="56" stroke="white" stroke-width="4" stroke-linecap="round" opacity="0.7"/>
  <line x1="310" y1="56" x2="350" y2="85" stroke="white" stroke-width="4" stroke-linecap="round" opacity="0.7"/>
  <line x1="150" y1="113" x2="150" y2="260" stroke="white" stroke-width="5" stroke-linecap="round" opacity="0.8"/>
  <circle cx="150" cy="270" r="12" fill="none" stroke="white" stroke-width="5" opacity="0.9"/>
  <path d="M 150 258 L 150 248" stroke="white" stroke-width="5" stroke-linecap="round" opacity="0.9"/>
  <path d="M 138 275 Q 135 295 150 300 Q 165 295 162 275" fill="none" stroke="white" stroke-width="5" stroke-linecap="round" opacity="0.9"/>
  <rect x="125" y="310" width="50" height="40" rx="8" fill="white" opacity="0.25"/>
  <rect x="185" y="390" width="106" height="20" rx="4" fill="white" opacity="0.7"/>
  <rect x="170" y="400" width="136" height="14" rx="4" fill="white" opacity="0.5"/>
</svg>
